<svg width="15" height="14" viewBox="0 0 15 14" fill="none" xmlns="http://www.w3.org/2000/svg">
<path d="M4.85693 1.5238L5.37578 0.668938L4.85693 0.35403L4.33808 0.668938L4.85693 1.5238ZM7.85693 3.34461L7.33808 4.19948L7.85693 4.51439L8.37578 4.19948L7.85693 3.34461ZM1.85693 3.34461L1.33808 2.48975L0.856934 2.78177V3.34461H1.85693ZM1.85693 7.24635H0.856934V7.70787L1.20814 8.00731L1.85693 7.24635ZM7.85693 12.362L7.20814 13.1229L7.85693 13.6761L8.50573 13.1229L7.85693 12.362ZM13.8569 7.24635L14.5057 8.00731L14.8569 7.70787V7.24635H13.8569ZM13.8569 3.34461H14.8569V2.78177L14.3758 2.48975L13.8569 3.34461ZM10.8569 1.5238L11.3758 0.668938L10.8569 0.35403L10.3381 0.668938L10.8569 1.5238ZM4.33808 2.37867L7.33808 4.19948L8.37578 2.48975L5.37578 0.668938L4.33808 2.37867ZM2.37578 4.19948L5.37578 2.37867L4.33808 0.668938L1.33808 2.48975L2.37578 4.19948ZM2.85693 7.24635V3.34461H0.856934V7.24635H2.85693ZM8.50573 11.601L2.50573 6.48538L1.20814 8.00731L7.20814 13.1229L8.50573 11.601ZM8.50573 13.1229L14.5057 8.00731L13.2081 6.48538L7.20814 11.601L8.50573 13.1229ZM14.8569 7.24635V3.34461H12.8569V7.24635H14.8569ZM14.3758 2.48975L11.3758 0.668938L10.3381 2.37867L13.3381 4.19948L14.3758 2.48975ZM10.3381 0.668938L7.33808 2.48975L8.37578 4.19948L11.3758 2.37867L10.3381 0.668938Z" fill="white"/>
</svg>
